<?xml version="1.0" encoding="utf-8"?>
<!-- Generator: Fusion 360, Shaper Origin Export Add-In, Version 1.7.0  -->
<svg xmlns="http://www.w3.org/2000/svg" xmlns:xlink="http://www.w3.org/1999/xlink" xmlns:shaper="http://www.shapertools.com/namespaces/shaper" shaper:fusionaddin="version:1.7.0" width="21.2cm" height="21.2cm" version="1.1" x="0cm" y="0cm" viewBox="0 0 21.2 21.2" enable-background="new 0 0 21.2 21.2" xml:space="preserve"><path d="M13.9407511,-7.8703165 L13.5907511,-7.8703165 A10.25,10.25 0 0,1 10.4609994,-0.4970835 L10.7041299,-0.2453146 A10.6,10.6 46 0,1 3.3407511,2.7296835 L3.3407511,2.3796835 A10.25,10.25 90 0,1 -4.0324818,-0.7500682 L-4.2842507,-0.5069378 A10.6,10.6 136 0,1 -7.2592489,-7.8703165 L-6.9092489,-7.8703165 A10.25,10.25 180 0,1 -3.7794971,-15.2435495 L-4.0226276,-15.4953184 A10.6,10.6 226 0,1 3.3407511,-18.4703165 L3.3407511,-18.1203165 A10.25,10.25 270 0,1 10.7139841,-14.9905648 L10.965753,-15.2336952 A10.6,10.6 316 0,1 13.9407511,-7.8703165z" transform="matrix(1,0,0,-1,7.2592489,2.7296835)" fill="rgb(0,0,0)" shaper:cutDepth="0.2cm" stroke-linecap="round" stroke-linejoin="round" /><path d="M-3.1592489,-7.8703165 a6.5,6.5 0 1,1 13,0 a6.5,6.5 0 1,1 -13,0z" transform="matrix(1,0,0,-1,7.2592489,2.7296835)" fill="rgb(255,255,255)" stroke="rgb(0,0,0)" stroke-width="0.0010cm" stroke-linecap="round" stroke-linejoin="round" shaper:cutDepth="0.2cm" /></svg>
