<?xml version="1.0" encoding="utf-8"?>
<!-- Generator: Fusion 360, Shaper Origin Export Add-In, Version 1.7.0  -->
<svg xmlns="http://www.w3.org/2000/svg" xmlns:xlink="http://www.w3.org/1999/xlink" xmlns:shaper="http://www.shapertools.com/namespaces/shaper" shaper:fusionaddin="version:1.7.0" width="20.5cm" height="20.5cm" version="1.1" x="0cm" y="0cm" viewBox="0 0 20.5 20.5" enable-background="new 0 0 20.5 20.5" xml:space="preserve"><path d="M4.14175,9.7573514 L4.0049941,9.4351747 A10.25,10.25 67 0,1 -4.0049941,9.4351747 L-4.14175,9.7573514 A10.6,10.6 113 0,1 -9.7573514,4.14175 L-9.4351747,4.0049941 A10.25,10.25 157 0,1 -9.4351747,-4.0049941 L-9.7573514,-4.14175 A10.6,10.6 203 0,1 -4.14175,-9.7573514 L-4.0049941,-9.4351747 A10.25,10.25 247 0,1 4.0049941,-9.4351747 L4.14175,-9.7573514 A10.6,10.6 293 0,1 9.7573514,-4.14175 L9.4351747,-4.0049941 A10.25,10.25 337 0,1 9.4351747,4.0049941 L9.7573514,4.14175 A10.6,10.6 23 0,1 4.14175,9.7573514z" transform="matrix(1,0,0,-1,10.25,10.25)" fill="rgb(0,0,0)" shaper:cutDepth="0.2cm" stroke-linecap="round" stroke-linejoin="round" /><path d="M-8.5,0 a8.5,8.5 0 1,1 17,0 a8.5,8.5 0 1,1 -17,0z" transform="matrix(1,0,0,-1,10.25,10.25)" fill="rgb(255,255,255)" stroke="rgb(0,0,0)" stroke-width="0.0010cm" stroke-linecap="round" stroke-linejoin="round" shaper:cutDepth="0.2cm" /></svg>
